<svg width="512" height="512" viewBox="0 0 512 512" fill="none" xmlns="http://www.w3.org/2000/svg">
    <path d="M0 8C0 3.58172 3.58172 0 8 0H504C508.418 0 512 3.58172 512 8V504C512 508.418 508.418 512 504 512H8C3.58172 512 0 508.418 0 504V8Z" fill="white"/>
    <svg xmlns="http://www.w3.org/2000/svg" viewBox="0 0 65 65" shape-rendering="crispEdges" height="512" width="512" x="0" y="0"><path stroke="#000000" d="M4 4.5h7m1 0h4m1 0h2m3 0h1m2 0h1m4 0h1m2 0h3m1 0h1m2 0h1m2 0h1m2 0h1m2 0h3m2 0h7M4 5.5h1m5 0h1m1 0h2m5 0h1m1 0h1m1 0h1m6 0h1m5 0h1m3 0h1m1 0h2m1 0h1m2 0h2m1 0h1m2 0h1m5 0h1M4 6.5h1m1 0h3m1 0h1m1 0h1m2 0h3m1 0h2m4 0h2m1 0h4m4 0h1m1 0h2m4 0h3m1 0h4m2 0h1m1 0h3m1 0h1M4 7.5h1m1 0h3m1 0h1m4 0h2m1 0h3m4 0h2m1 0h3m3 0h3m2 0h2m4 0h1m1 0h1m1 0h1m1 0h1m2 0h1m1 0h3m1 0h1M4 8.5h1m1 0h3m1 0h1m10 0h1m1 0h2m1 0h2m2 0h5m1 0h4m1 0h1m4 0h1m1 0h1m2 0h1m2 0h1m1 0h3m1 0h1M4 9.5h1m5 0h1m1 0h1m3 0h2m3 0h1m1 0h1m3 0h4m3 0h1m1 0h2m3 0h2m2 0h1m1 0h4m3 0h1m5 0h1M4 10.5h7m1 0h1m1 0h1m1 0h1m1 0h1m1 0h1m1 0h1m1 0h1m1 0h1m1 0h1m1 0h1m1 0h1m1 0h1m1 0h1m1 0h1m1 0h1m1 0h1m1 0h1m1 0h1m1 0h1m1 0h1m1 0h1m1 0h7M12 11.5h1m4 0h2m2 0h2m2 0h1m1 0h1m1 0h2m3 0h1m2 0h1m1 0h1m3 0h2m1 0h2m2 0h2M6 12.5h3m1 0h1m1 0h2m3 0h2m2 0h1m2 0h3m2 0h9m1 0h3m3 0h1m3 0h2m1 0h4m2 0h3M5 13.5h2m4 0h1m2 0h1m2 0h1m1 0h5m1 0h4m3 0h2m1 0h1m10 0h2m2 0h4m2 0h1m2 0h2M4 14.5h1m2 0h1m2 0h4m5 0h1m5 0h3m4 0h2m2 0h2m1 0h1m1 0h1m3 0h1m3 0h1m1 0h1m2 0h1m1 0h3M7 15.5h2m3 0h1m1 0h2m1 0h2m3 0h7m1 0h2m1 0h1m3 0h2m1 0h6m2 0h1m1 0h1m1 0h2m2 0h4M4 16.5h5m1 0h3m1 0h3m1 0h4m1 0h1m1 0h2m1 0h1m1 0h3m1 0h1m1 0h1m2 0h1m1 0h2m2 0h1m1 0h1m2 0h2m7 0h1M4 17.5h4m3 0h1m1 0h2m8 0h1m2 0h1m2 0h4m1 0h3m2 0h1m5 0h3m1 0h1m1 0h2m2 0h1m1 0h1m1 0h2M6 18.5h3m1 0h1m1 0h1m1 0h1m2 0h2m1 0h2m4 0h6m3 0h1m1 0h4m1 0h1m1 0h1m4 0h9M6 19.5h2m3 0h2m1 0h2m1 0h2m3 0h1m3 0h1m3 0h2m1 0h1m1 0h2m2 0h1m3 0h3m2 0h2m1 0h2m2 0h1m1 0h2m1 0h1M7 20.5h4m1 0h6m1 0h1m4 0h2m4 0h1m2 0h1m1 0h2m3 0h3m6 0h1m1 0h1m3 0h1m1 0h1m1 0h1M5 21.5h1m2 0h2m1 0h1m7 0h2m1 0h1m1 0h6m1 0h3m2 0h2m2 0h2m4 0h1m2 0h1m2 0h1m3 0h1m3 0h1M5 22.5h1m1 0h2m1 0h3m2 0h2m1 0h4m2 0h1m1 0h1m2 0h2m2 0h2m2 0h2m1 0h1m1 0h1m1 0h2m2 0h1m1 0h2m1 0h2m3 0h2M5 23.5h1m2 0h1m2 0h1m1 0h1m2 0h1m1 0h2m2 0h1m1 0h1m1 0h1m1 0h1m2 0h4m4 0h3m1 0h3m2 0h3m1 0h7M7 24.5h2m1 0h1m3 0h1m1 0h1m1 0h1m1 0h1m3 0h3m1 0h1m3 0h2m11 0h3m1 0h1m1 0h1m1 0h1m5 0h1M4 25.5h1m1 0h2m1 0h1m1 0h2m4 0h3m1 0h4m1 0h2m2 0h2m3 0h5m3 0h1m1 0h3m1 0h1m2 0h2m1 0h2m3 0h1M4 26.5h3m1 0h6m3 0h1m2 0h1m4 0h2m1 0h1m1 0h2m1 0h1m1 0h2m1 0h1m2 0h3m4 0h7m1 0h4M9 27.5h1m1 0h4m2 0h3m1 0h3m2 0h2m3 0h6m2 0h5m1 0h1m2 0h2m1 0h2m1 0h5M4 28.5h1m4 0h2m3 0h1m1 0h1m1 0h5m1 0h2m3 0h2m1 0h4m2 0h1m3 0h1m1 0h1m2 0h1m2 0h2m1 0h2M4 29.5h2m2 0h1m4 0h2m3 0h4m1 0h1m5 0h4m1 0h3m1 0h4m1 0h3m2 0h2m2 0h1m2 0h1m4 0h1M6 30.5h1m1 0h5m1 0h6m3 0h1m1 0h2m1 0h1m1 0h6m1 0h2m2 0h2m1 0h1m1 0h2m2 0h8m1 0h1M4 31.5h3m1 0h1m3 0h1m4 0h1m1 0h6m1 0h1m1 0h3m3 0h1m3 0h1m3 0h1m1 0h6m2 0h1m3 0h3m1 0h1M4 32.5h3m1 0h1m1 0h1m1 0h1m1 0h1m1 0h1m2 0h1m2 0h1m1 0h3m1 0h1m1 0h1m1 0h1m1 0h1m1 0h1m8 0h2m2 0h4m1 0h1m1 0h1m2 0h1M4 33.5h3m1 0h1m3 0h2m2 0h1m4 0h1m3 0h1m2 0h3m3 0h2m3 0h1m1 0h1m3 0h3m4 0h1m3 0h3m1 0h1M4 34.5h2m1 0h8m1 0h2m3 0h2m2 0h1m1 0h11m1 0h4m1 0h2m4 0h1m1 0h8M4 35.5h5m7 0h7m1 0h1m1 0h1m4 0h1m1 0h1m1 0h1m1 0h1m3 0h1m2 0h6m1 0h2m1 0h1m2 0h4M4 36.5h1m1 0h2m2 0h1m2 0h4m2 0h3m4 0h1m2 0h3m1 0h1m1 0h2m1 0h2m2 0h2m8 0h6M5 37.5h1m1 0h1m1 0h1m1 0h2m1 0h1m1 0h1m1 0h4m4 0h1m1 0h1m1 0h2m1 0h1m2 0h1m1 0h1m1 0h2m1 0h5m1 0h1m1 0h2m1 0h2m1 0h2m1 0h1M4 38.5h1m1 0h1m1 0h3m2 0h2m2 0h4m1 0h3m1 0h1m1 0h3m2 0h1m5 0h2m1 0h1m1 0h1m2 0h1m2 0h2m1 0h1m4 0h2M5 39.5h3m1 0h1m4 0h1m1 0h2m3 0h1m3 0h1m1 0h1m2 0h4m2 0h1m1 0h3m2 0h4m1 0h1m1 0h1m1 0h1m1 0h1m3 0h1M4 40.5h1m2 0h2m1 0h2m1 0h1m1 0h2m1 0h1m1 0h2m2 0h2m2 0h1m4 0h2m2 0h3m2 0h1m2 0h2m6 0h2m1 0h1M5 41.5h1m1 0h3m2 0h1m1 0h4m4 0h1m2 0h1m2 0h2m2 0h2m1 0h3m1 0h3m4 0h2m4 0h1m1 0h2m4 0h1M5 42.5h1m2 0h1m1 0h1m4 0h2m2 0h5m2 0h1m1 0h1m6 0h4m3 0h1m1 0h2m1 0h1m1 0h2m1 0h3m1 0h4M5 43.5h1m1 0h2m3 0h1m2 0h2m1 0h1m1 0h1m1 0h2m4 0h3m2 0h1m1 0h1m3 0h1m1 0h2m1 0h2m3 0h1m1 0h1m3 0h1m1 0h2M5 44.5h1m1 0h4m4 0h2m1 0h1m4 0h2m4 0h1m1 0h1m3 0h5m2 0h1m2 0h1m1 0h2m7 0h1m2 0h1M4 45.5h1m3 0h1m3 0h1m1 0h5m1 0h4m3 0h3m1 0h3m2 0h1m1 0h1m2 0h6m1 0h2m5 0h1m1 0h1m2 0h1M6 46.5h1m2 0h2m2 0h6m1 0h2m2 0h1m1 0h2m6 0h2m2 0h1m4 0h1m1 0h1m1 0h2m8 0h3M8 47.5h2m1 0h1m1 0h2m1 0h1m2 0h2m1 0h1m1 0h2m1 0h2m5 0h2m2 0h1m2 0h1m1 0h3m2 0h1m1 0h5m1 0h3M5 48.5h1m1 0h1m2 0h1m1 0h2m1 0h2m1 0h3m1 0h1m2 0h3m5 0h1m1 0h3m3 0h1m1 0h1m3 0h1m2 0h1m2 0h1m1 0h2m3 0h1M14 49.5h1m1 0h2m1 0h3m1 0h3m4 0h10m1 0h1m4 0h1m1 0h1m5 0h2m2 0h1m1 0h1M4 50.5h1m1 0h1m2 0h6m1 0h3m1 0h1m1 0h1m3 0h1m3 0h3m1 0h1m1 0h2m3 0h2m2 0h1m1 0h2m1 0h1m1 0h2m1 0h3m1 0h1M4 51.5h5m5 0h6m1 0h1m3 0h1m6 0h1m1 0h1m1 0h2m1 0h1m3 0h2m1 0h4m1 0h1m2 0h1m2 0h3M10 52.5h2m1 0h5m1 0h1m1 0h1m4 0h1m1 0h1m1 0h5m3 0h1m2 0h1m1 0h1m2 0h1m5 0h5M12 53.5h1m2 0h2m2 0h1m4 0h3m1 0h3m3 0h7m2 0h1m2 0h1m2 0h1m2 0h1m3 0h1m1 0h1m1 0h1M4 54.5h7m3 0h1m3 0h1m1 0h3m7 0h1m1 0h1m1 0h2m1 0h1m1 0h3m5 0h1m2 0h3m1 0h1m1 0h4M4 55.5h1m5 0h1m2 0h5m3 0h2m3 0h1m3 0h1m3 0h1m2 0h2m1 0h1m1 0h1m1 0h3m1 0h1m1 0h3m3 0h3m1 0h1M4 56.5h1m1 0h3m1 0h1m1 0h2m3 0h1m1 0h5m1 0h1m1 0h1m1 0h7m1 0h3m2 0h1m2 0h3m4 0h5m2 0h2M4 57.5h1m1 0h3m1 0h1m1 0h2m1 0h1m2 0h2m3 0h1m1 0h1m3 0h4m1 0h1m2 0h1m3 0h3m2 0h3m4 0h1m2 0h3M4 58.5h1m1 0h3m1 0h1m1 0h3m1 0h3m2 0h1m1 0h1m1 0h1m4 0h2m1 0h2m4 0h1m2 0h4m3 0h4m1 0h1m2 0h2M4 59.5h1m5 0h1m2 0h1m1 0h1m4 0h3m1 0h1m1 0h2m1 0h4m1 0h9m3 0h1m1 0h5m4 0h2M4 60.5h7m4 0h1m3 0h3m6 0h1m1 0h2m6 0h1m2 0h1m1 0h1m1 0h3m5 0h2m2 0h1m1 0h1"/></svg>

    <rect x="216.6153846153846" y="216.6153846153846" width="78.76923076923077" height="78.76923076923077" fill="black" stroke="white" stroke-width="8.376923076923077"/>
    <svg x="216.6153846153846" y="216.6153846153846" width="78.76923076923077" height="78.76923076923077" viewBox="0 0 116 116" fill="none" xmlns="http://www.w3.org/2000/svg">
      <path d="M63.9114 35.4964L52.1135 35.4964L30.6671 76.3932L39.9023 81.2706L58.0329 46.7391L76.1169 81.2829L85.333 76.3847L63.9114 35.4964Z" fill="white"/>
    </svg>
  </svg>